/* XPM */
static char * floor_64_xpm[] = {
"64 64 153 2",
"  	c #908C73",
". 	c #8C8772",
"+ 	c #685F71",
"@ 	c #8D8972",
"# 	c #645C71",
"$ 	c #8F8B72",
"% 	c #8C8872",
"& 	c #686071",
"* 	c #8B8671",
"= 	c #645B71",
"- 	c #797462",
"; 	c #8B8670",
"> 	c #7A7561",
", 	c #787360",
"' 	c #756F61",
") 	c #665E70",
"! 	c #888371",
"~ 	c #77725F",
"{ 	c #777260",
"] 	c #635A70",
"^ 	c #62596F",
"/ 	c #62596E",
"( 	c #726D5F",
"_ 	c #716C5D",
": 	c #746F5F",
"< 	c #847E6C",
"[ 	c #635A6F",
"} 	c #5E556F",
"| 	c #847F6D",
"1 	c #4A4353",
"2 	c #4B4552",
"3 	c #4A4453",
"4 	c #4D4653",
"5 	c #4C4552",
"6 	c #4B4453",
"7 	c #4D4753",
"8 	c #6E695F",
"9 	c #60576F",
"0 	c #61586F",
"a 	c #847E6D",
"b 	c #767160",
"c 	c #6E695E",
"d 	c #61596E",
"e 	c #7A7563",
"f 	c #736E5E",
"g 	c #706B5E",
"h 	c #635B6F",
"i 	c #746F60",
"j 	c #86816E",
"k 	c #635B6E",
"l 	c #6C675F",
"m 	c #7B7662",
"n 	c #60576E",
"o 	c #60586F",
"p 	c #494252",
"q 	c #494254",
"r 	c #4B4553",
"s 	c #494352",
"t 	c #4D4654",
"u 	c #4C4654",
"v 	c #4E4753",
"w 	c #4F4954",
"x 	c #4E4853",
"y 	c #8A8670",
"z 	c #88836F",
"A 	c #5E556D",
"B 	c #5F556D",
"C 	c #474051",
"D 	c #8B8771",
"E 	c #888470",
"F 	c #85806D",
"G 	c #4E4854",
"H 	c #888370",
"I 	c #8A8570",
"J 	c #87826F",
"K 	c #655C6F",
"L 	c #716C5E",
"M 	c #645B70",
"N 	c #706B60",
"O 	c #5F566D",
"P 	c #4A4355",
"Q 	c #61586E",
"R 	c #7D7863",
"S 	c #8B8770",
"T 	c #675E70",
"U 	c #7C7762",
"V 	c #888471",
"W 	c #696171",
"X 	c #87836E",
"Y 	c #787361",
"Z 	c #8A8672",
"` 	c #696170",
" .	c #807B67",
"..	c #75705F",
"+.	c #665E6F",
"@.	c #736D5F",
"#.	c #625970",
"$.	c #797461",
"%.	c #75705E",
"&.	c #8A8671",
"*.	c #504A56",
"=.	c #61586D",
"-.	c #5F566E",
";.	c #4E4754",
">.	c #4F4855",
",.	c #655D6F",
"'.	c #726C60",
").	c #655D70",
"!.	c #76715E",
"~.	c #665D70",
"{.	c #736E5F",
"].	c #898470",
"^.	c #88836E",
"/.	c #514A56",
"(.	c #6E695C",
"_.	c #60576D",
":.	c #504955",
"<.	c #665D6F",
"[.	c #8D8971",
"}.	c #6E685D",
"|.	c #645C6F",
"1.	c #4C4555",
"2.	c #807B69",
"3.	c #4B4452",
"4.	c #716B5E",
"5.	c #757060",
"6.	c #4B4454",
"7.	c #5B516C",
"8.	c #484153",
"9.	c #5C536D",
"0.	c #7C7665",
"a.	c #4A4352",
"b.	c #484152",
"c.	c #4A4452",
"d.	c #5C536C",
"e.	c #5C536E",
"f.	c #706B5F",
"g.	c #625A6E",
"h.	c #605771",
"i.	c #7C7763",
"j.	c #736E60",
"k.	c #726D60",
"l.	c #686070",
"m.	c #6E695D",
"n.	c #504954",
"o.	c #746E5F",
"p.	c #7C7863",
"q.	c #6F6A5F",
"r.	c #807B68",
"s.	c #615871",
"t.	c #6D6861",
"u.	c #655C70",
"v.	c #504956",
"                                                            . + .                                                           @ # ",
"  $   $ $ $ $ $ $ $ $ $ $ $ $ $ $ $ $ $ $ $ $ $ $ $ $ $ $ $ % & . $   $ $ $ $ $ $ $ $ $ $ $ $ $ $ $ $ $ $ $ $ $ $ $ $ $ $ $ * = ",
"* - ; > , , , , , , , , , , , , , , , , , , , , , , , , , > ' ) ! - ; > ~ ~ ~ ~ ~ ~ ~ ~ ~ ~ ~ ~ ~ ~ ~ ~ ~ ~ ~ ~ ~ ~ ~ ~ { > ' ] ",
"^ / ( _ _ _ _ _ _ _ _ _ _ _ _ _ _ _ _ _ _ _ _ _ _ _ _ _ : < [ } ^ / ( _ _ _ _ _ _ _ _ _ _ _ _ _ _ _ _ _ _ _ _ _ _ _ _ _ : | [ } ",
"1 1 2 2 2 2 1 3 4 5 2 2 2 2 2 2 2 1 1 1 5 2 2 2 2 2 2 6 7 7 3 1 1 1 2 2 2 2 1 3 4 5 2 2 2 2 2 2 2 1 1 1 5 2 2 2 2 2 2 6 7 7 3 1 ",
"_ _ _ _ _ 8 9 0 a b _ _ _ _ _ _ c d } 0 e f _ _ _ g 8 h a b _ _ _ _ _ _ _ 8 9 0 a b _ _ _ _ _ _ c d } 0 e f _ _ _ g 8 h a b _ _ ",
"_ _ _ _ g / } 9 i j : _ _ _ _ g k l 9 9 ( m _ _ g / n o i j : _ _ _ _ _ g / } 9 i j : _ _ _ _ g k l 9 9 ( m _ _ g / n o i j : _ ",
"7 7 5 p p q q q 1 r s p 5 7 7 7 t 7 u u 7 v 5 s 2 u u u v w v 7 7 7 5 p p q q q 1 r s p 5 7 7 7 t 7 u u 7 x 4 s 2 u u u v w v 7 ",
"y z : 6 1 A } } B q C 6 : y D y D y y y y z : t : y D y D y y y y z : 6 1 A } } B q C 6 : y D y * E * y y y F G : y D H I y y y ",
", m J K L ( ] M N O P Q *   $ R S > , , , > H T * $ $ U ; > , , , m J K L ( ] M N O P Q *   $ R V W X Y , , b K j D Z ` { , , , ",
", J Y )  ...+.@.: #.n = . $   S $.%.%.%.%.%.b T * R ; , , %.%.%., J Y )  ...+.@.: #.n = . $   &.W ] *.=.( : g -.;.>.,.'._ %.%.%.",
"%., : ). .!.: %.: ,.N ) * U ; > %.%.%.%.%.%.( ~.. S $.%.%.%.%.%.%., {.). .!.: %.: ,.N ) * U ; m ].@ ^./.0 [ u 1 (.g N _.:._ %.%.",
"%.%.{.). .!.%.%.%.: {.T * , , %.%.%.%.%.%.: <.# * U %.%.%.%.%.%.%.%.{.). .!.%.%.%.: {.T * , , %.> [.$ j ~.N }.2 8 |.O 1.2.{ %.%.",
"%.%.( ). .~ %.%.%.%.( ~.].> %.%.%.%.%.%.%.{.N ) * [.> %.%.%.%.%.%.%.( ). .~ %.%.%.%.( ~.].> %.%.%., , b 0 #.O q 9 } q 3.;.4.%.%.",
"_ g / 9 ( m _ _ _ g / o i j : _ _ _ _ _ g / n o 5.y z : _ _ _ _ _ g / 9 ( m _ _ _ g / o i j : _ _ _ _ (.6.7.q 8.9.9.6 0.n / g _ ",
"7 7 u u 7 v 5 s 5 7 u u v w v 7 7 7 5 p p 8.8.q s r r a.5 7 7 7 7 7 u u 7 x 4 s 5 7 u u v w v 7 7 7 5 p C q 8.8.8.b.C c.6 u 7 7 ",
"D y y y y y : t : y D D y y y y y z : 6 p 8.q d.q C b.6 : y D y * E * y y y F G : y D D y y y y y z : 6 1 A } e.q C C 6 : y D y ",
"[.> , , > $ &.T *   $ [.> , , , , > H K f./ 9 N O P B [ *   $ U V W X Y , , b g.j D D [.> , , , , m J K L ( ] h.7.b.q Q *   $ i.",
", %.%.%., ; Y T . [.U , %.%.%.%.%.%.b )  .j.+.k.] / N ) . $ [.{ l.] *.=.( : m.3 4 7 n.o._ %.%.%., J Y )  .j.] } P q e.= . $   [.",
"%.%.%.%.%., {.~.* p.z , %.%.%.%.%.%.( ). .!.: : ,.@.: ~.* > , , ].. ^./.0 [ u p (.g q._.:._ %.%.%., {.).r.+.s.#.} n #.] * U ; > ",
"%.%.%.%.%.%.( ~.. S $.%.%.%.%.%.%.@.M =  .!.%.%.: %.{.~.* , %.%.> [.$ j ~.N }.2 8 |.O 1.2.{ %.%.%.%.{.). .j.,.t.u.k.g v.y , , %.",
"%.%.%.%.%.@.M = ].m %.%.%.%.%.%.@.,.h.=  .~ %.%.%.: k.~.].> %.%.%., , b 0 #.O q 9 } q 3.;.4.%.%.%.%.( ). .~ @.<.u.: ( K ].> %.%.",
"_ _ _ _ g / } 9 i j : _ _ _ _ g k l 9 9 ( m _ _ g / n o i j : _ _ _ _ (.6.7.q 8.9.9.6 0.n / g _ _ g / 9 ( m _ g g g / o i j : _ ",
"7 7 5 p p q q q 1 r s p 5 7 7 7 t 7 u u 7 v 5 s 2 u u u v w v 7 7 7 5 p C q 8.8.8.b.C c.6 u 7 7 7 7 u u 7 v 5 s 5 7 u u v w v 7 ",
"y z : 6 1 A } } B q C 6 : y D y D y y y y z : t : y D y D y y y y z : 6 1 A } e.q C C 6 : y D y D y y y y z : t : y D y D y y y ",
", m J K L ( ] M N O P Q *   $ R S > , , , > H T * $ $ U ; > , , , m J K L ( ] h.7.b.q Q *   $ R S > , , , > H T * $ $ U ; > , , ",
", J Y )  ...+.@.: #.n = . $   S $.%.%.%.%.%.b T * R ; , , %.%.%., J Y )  .j.] } P q e.= . $   S $.%.%.%.%.%.b T * R ; , , %.%.%.",
"%., : ). .!.: %.: ,.N ) * U ; > %.%.%.%.%.%.( ~.. S $.%.%.%.%.%.%., {.).r.+.s.#.} n #.] * U ; > %.%.%.%.%.%.( ~.. S $.%.%.%.%.%.",
"%.%.{.). .!.%.%.%.: {.T * , , %.%.%.%.%.%.: <.# * U %.%.%.%.%.%.%.%.{.). .j.,.t.u.k.g v.y , , %.%.%.%.%.%.: <.# * U %.%.%.%.%.%.",
"%.%.( ). .~ %.%.%.%.( ~.].> %.%.%.%.%.%.%.{.N ) * [.> %.%.%.%.%.%.%.( ). .~ @.<.u.: ( K ].> %.%.%.%.%.%.%.{.N ) * [.> %.%.%.%.%.",
"_ g / 9 ( m _ _ _ g / o i j : _ _ _ _ _ g / n o 5.y z : _ _ _ _ _ g / 9 ( m _ g g g / o i j : _ _ _ _ _ g / n o 5.y z : _ _ _ _ ",
"7 7 u u 7 v 5 s 5 7 u u v w v 7 7 7 5 p p 8.8.q s r r a.5 7 7 7 7 7 u u 7 v 5 s 5 7 u u v w v 7 7 7 5 p p 8.8.q s r r a.5 7 7 7 ",
"D y y y y y : t : y D D y y y y y z : 6 p 8.q d.q C b.6 : y D y D y y y y y : t : y D D y y y y y z : 6 p 8.q d.q C b.6 : y D y ",
"[.> , , > $ &.T *   $ [.> , , , , > H K f./ 9 N O P B [ *   $ U ; > , , > $ &.T *   $ [.> , , , , > H K f./ 9 N O P B [ *   $ > ",
", %.%.%., ; Y T . [.U , %.%.%.%.%.%.b )  .j.+.k.] / N ) . $ [.~ , %.%.%., ; Y T . [.U , %.%.%.%.%.%.b )  .j.+.k.] / N ) . $ [.~ ",
"%.%.%.%.%., {.~.* p.z , %.%.%.%.%.%.( ). .!.: : ,.@.: ~.* > , %.%.%.%.%.%., {.~.* p.z , %.%.%.%.%.%.( ). .!.: : ,.@.: ~.* > , %.",
"%.%.%.%.%.%.( ~.. S $.%.%.%.%.%.%.@.M =  .!.%.%.: %.{.~.* , %.%.%.%.%.%.%.%.( ~.. S $.%.%.%.%.%.%.@.M =  .!.%.%.: %.{.~.* , %.%.",
"%.%.%.%.%.@.M = ].m %.%.%.%.%.%.@.,.h.=  .~ %.%.%.: k.~.].> %.%.%.%.%.%.%.@.M = ].m %.%.%.%.%.%.@.,.h.=  .~ %.%.%.: k.~.].> %.%.",
"_ _ _ _ g / } 9 i j : _ _ _ _ g k l 9 9 ( m _ _ g / n o i j : _ _ _ _ _ g / } 9 i j : _ _ _ _ g k l 9 9 ( m _ _ g / n o i j : _ ",
"7 7 5 p p q q q 1 r s p 5 7 7 7 t 7 u u 7 v 5 s 2 u u u v w v 7 7 7 5 p p q q q 1 r s p 5 7 7 7 t 7 u u 7 x 4 s 2 u u u v w v 7 ",
"y z : 6 1 A } } B q C 6 : y D y D y y y y z : t : y D y D y y y y z : 6 1 A } } B q C 6 : y D y * E * y y y F G : y D H I y y y ",
", m J K L ( ] M N O P Q *   $ R S > , , , > H T * $ $ U ; > , , , m J K L ( ] M N O P Q *   $ R V W X Y , , b K j D Z ` { , , , ",
", J Y )  ...+.@.: #.n = . $   S $.%.%.%.%.%.b T * R ; , , %.%.%., J Y )  ...+.@.: #.n = . $   &.W ] *.=.( : g -.;.>.,.'._ %.%.%.",
"%., : ). .!.: %.: ,.N ) * U ; > %.%.%.%.%.%.( ~.. S $.%.%.%.%.%.%., {.). .!.: %.: ,.N ) * U ; m ].@ ^./.0 [ u 1 (.g N _.:._ %.%.",
"%.%.{.). .!.%.%.%.: {.T * , , %.%.%.%.%.%.: <.# * U %.%.%.%.%.%.%.%.{.). .!.%.%.%.: {.T * , , %.> [.$ j ~.N }.2 8 |.O 1.2.{ %.%.",
"%.%.( ). .~ %.%.%.%.( ~.].> %.%.%.%.%.%.%.{.N ) * [.> %.%.%.%.%.%.%.( ). .~ %.%.%.%.( ~.].> %.%.%., , b 0 #.O q 9 } q 3.;.4.%.%.",
"_ g / 9 ( m _ _ _ g / o i j : _ _ _ _ _ g / n o 5.y z : _ _ _ _ _ g / 9 ( m _ _ _ g / o i j : _ _ _ _ (.6.7.q 8.9.9.6 0.n / g _ ",
"7 7 u u 7 v 5 s 5 7 u u v w v 7 7 7 5 p p 8.8.q s r r a.5 7 7 7 7 7 u u 7 x 4 s 5 7 u u v w v 7 7 7 5 p C q 8.8.8.b.C c.6 u 7 7 ",
"D y y y y y : t : y D D y y y y y z : 6 p 8.q d.q C b.6 : y D y * E * y y y F G : y D D y y y y y z : 6 1 A } e.q C C 6 : y D y ",
"[.> , , > $ &.T *   $ [.> , , , , > H K f./ 9 N O P B [ *   $ U V W X Y , , b g.j D D [.> , , , , m J K L ( ] h.7.b.q Q *   $ i.",
", %.%.%., ; Y T . [.U , %.%.%.%.%.%.b )  .j.+.k.] / N ) . $ [.{ l.] *.=.( : m.3 4 7 n.o._ %.%.%., J Y )  .j.] } P q e.= . $   [.",
"%.%.%.%.%., {.~.* p.z , %.%.%.%.%.%.( ). .!.: : ,.@.: ~.* > , , ].. ^./.0 [ u p (.g q._.:._ %.%.%., {.).r.+.s.#.} n #.] * U ; > ",
"%.%.%.%.%.%.( ~.. S $.%.%.%.%.%.%.@.M =  .!.%.%.: %.{.~.* , %.%.> [.$ j ~.N }.2 8 |.O 1.2.{ %.%.%.%.{.). .j.,.t.u.k.g v.y , , %.",
"%.%.%.%.%.@.M = ].m %.%.%.%.%.%.@.,.h.=  .~ %.%.%.: k.~.].> %.%.%., , b 0 #.O q 9 } q 3.;.4.%.%.%.%.( ). .~ @.<.u.: ( K ].> %.%.",
"_ _ _ _ g / } 9 i j : _ _ _ _ g k l 9 9 ( m _ _ g / n o i j : _ _ _ _ (.6.7.q 8.9.9.6 0.n / g _ _ g / 9 ( m _ g g g / o i j : _ ",
"7 7 5 p p q q q 1 r s p 5 7 7 7 t 7 u u 7 v 5 s 2 u u u v w v 7 7 7 5 p C q 8.8.8.b.C c.6 u 7 7 7 7 u u 7 v 5 s 5 7 u u v w v 7 ",
"y z : 6 1 A } } B q C 6 : y D y D y y y y z : t : y D y D y y y y z : 6 1 A } e.q C C 6 : y D y D y y y y z : t : y D y D y y y ",
", m J K L ( ] M N O P Q *   $ R S > , , , > H T * $ $ U ; > , , , m J K L ( ] h.7.b.q Q *   $ R S > , , , > H T * $ $ U ; > , , ",
", J Y )  ...+.@.: #.n = . $   S $.%.%.%.%.%.b T * R ; , , %.%.%., J Y )  .j.] } P q e.= . $   S $.%.%.%.%.%.b T * R ; , , %.%.%.",
"%., : ). .!.: %.: ,.N ) * U ; > %.%.%.%.%.%.( ~.. S $.%.%.%.%.%.%., {.).r.+.s.#.} n #.] * U ; > %.%.%.%.%.%.( ~.. S $.%.%.%.%.%.",
"%.%.{.). .!.%.%.%.: {.T * , , %.%.%.%.%.%.: <.# * U %.%.%.%.%.%.%.%.{.). .j.,.t.u.k.g v.y , , %.%.%.%.%.%.: <.# * U %.%.%.%.%.%.",
"%.%.( ). .~ %.%.%.%.( ~.].> %.%.%.%.%.%.%.{.N ) * [.> %.%.%.%.%.%.%.( ). .~ @.<.u.: ( K ].> %.%.%.%.%.%.%.{.N ) * [.> %.%.%.%.%.",
"_ g / 9 ( m _ _ _ g / o i j : _ _ _ _ _ g / n o 5.y z : _ _ _ _ _ g / 9 ( m _ g g g / o i j : _ _ _ _ _ g / n o 5.y z : _ _ _ _ ",
"p p 8.8.p a.p p p p 8.8.s r s p p p p p p 8.8.8.s r r s p p p p p p 8.8.p a.p p p p 8.8.s r s p p p p p p 8.8.8.s r r s p p p p "};
