/* XPM */
static char *_26c22c6aa514969eb074a3ed0c9a178fRwkpk1MKeRryIi2[] = {
/* columns rows colors chars-per-pixel */
"128 128 10 1 ",
"  c #474051",
". c #75705E",
"X c #908C73",
"o c #645B71",
"O c #797460",
"+ c #8A8571",
"@ c #6F6A5D",
"# c #605771",
"$ c #5D536F",
"% c #827D67",
/* pixels */
"XXXXXXXXXXXXXXXXXXXXXXXXXXXXXXXXXXXXXXXXXXXXXXXXXXXXXXXXXXXXX+oo+XXXXXXXXXXXXXXXXXXXXXXXXXXXXXXXXXXXXXXXXXXXXXXXXXXXXXXXXXXXX+o#",
"XXXXXXXXXXXXXXXXXXXXXXXXXXXXXXXXXXXXXXXXXXXXXXXXXXXXXXXXXXXXX+oo+XXXXXXXXXXXXXXXXXXXXXXXXXXXXXXXXXXXXXXXXXXXXXXXXXXXXXXXXXXXXXo#",
"XXXXXXXXXXXXXXXXXXXXXXXXXXXXXXXXXXXXXXXXXXXXXXXXXXXXXXXXXXXXXXoo+XXXXXXXXXXXXXXXXXXXXXXXXXXXXXXXXXXXXXXXXXXXXXXXXXXXXXXXXXXXX+o#",
"XXXXXXXXXXXXXXXXXXXXXXXXXXXXXXXXXXXXXXXXXXXXXXXXXXXXXXXXXXXXX+oo+XXXXXXXXXXXXXXXXXXXXXXXXXXXXXXXXXXXXXXXXXXXXXXXXXXXXXXXXXXXX+o#",
"XXOOXXOOOOOOOOOOOOOOOOOOOOOOOOOOOOOOOOOOOOOOOOOOOOOOOOOOOOOOO.oo+XOOXXOO.O.O.O.O.O.O.O.O.O.O.O.O.O.O.O.O.O.O.O.O.O.O.O.O.O.OO.o#",
"++..++O....................................................O.@oo++..++O...................................................OO.@o#",
"oooo.O...................................................O++oo##oooo.O...................................................O++oo##",
"$$$#@@@@@@@@@@@@@@@@@@@@@@@@@@@@@@@@@@@@@@@@@@@@@@@@@@@@@.+%#$$$$$$#@@@@@@@@@@@@@@@@@@@@@@@@@@@@@@@@@@@@@@@@@@@@@@@@@@@@@.+%#$$$",
"                                                                                                                                ",
"                                                                                                                                ",
"@@@@@@@@@@@@#$$#%+.@@@@@@@@@@@@@@@#$$$$#OO@@@@@@@@@@@@##%+.@@@@@@@@@@@@@@@@@#$$#%+.@@@@@@@@@@@@@@@#$$$$#OO@@@@@@@@@@@@##%+.@@@@@",
"...........@o##o++OO.............@oo###o%%O..........@oo++OO...............@o##o++OO.............@oo###o%%O..........@oo++OO....",
"..........oo###o.O++O...........oo@@o##o.O%%......oooo#o.O++O.............oo###o.O++O...........oo@@o##o.O%%......oooo#o.O++O...",
"@@@@@@@@@@#$$$$#@.++.@@@@@@@@@@@##@@#$$#@@OO@@@@@@#$$$$#@.++.@@@@@@@@@@@@@#$$$$#@.++.@@@@@@@@@@@##@@#$$#@@OO@@@@@@#$$$$#@.++.@@@",
"                                                                                                                                ",
"                                                                                                                                ",
"++++.@    $$$$$$$$      @.++++++++++++++++++.@  @.++++++++++++++++++.@    $$$$$$$$      @.+++++++++++++++++++%  @.++++++++++++++",
"XXX+O.    $o####o#      .OXXXXXXXXXXXXXXXXX+O.  .OXXXXXXXXXXXXXXXXX+O.    $o####o#      .OXXXXXXXXX+XXXXXXXXX+  .OXXXXX+XXXXXXXX",
"OOOO++o#@@.@o##o@@#$  $o+XXXXXOOXXOOOOOOOOOOX+oo+XXXXXOOXXOOOOOOOOOO++o#@@.@o##o@@#$  $o+XXXXXOOX+ooXXOOOOOOO.#o+XXXXXoo.OOOOOOO",
"..OO++oo....o#oo..o$  $o+XXXXXOO++O........O++oo+XXXXXOO++O.......OO++oo....o#oo..o$  $o+XXXXXOO++oo%+........oo%+++++oo........",
".O++O.oo%%..oo@...##$$#o+XXXXXX+OO..........O.oo+XOOXXO.OO.......O++O.oo%%..oo@...##$$#o+XXXXXX+oo#$  #o......##    oo..........",
".O++O.oo%%..oo....o#oo#o+XXXXXX+O.............oo+XOO++O..........O++O.oo%%..oo....o#oo#o+XXXXXX+oooo  $#@...@@#$    #o@.@@......",
"..OO..#o%%........#o@@oo+XOOXXOO..............#o+XX+OO............OO..#o%%........#o@@oo+XOOXXOO++X++%  #oo#    @@@@.@o#  @.....",
"......oo%%........oo..oo+XOO++O..............@oo+XX+O................@oo%%........oo..oo+XOO++OO+XXXXX  $#o#    @....@#$  @.....",
"......#o%%...........@oo+XO.OO..............oo#o+XOO..................#o%%...........@oo+XO.OO..OOXXXX+%oo@.@@  @.ooo#  %+O.....",
".....@oo%%............oo+XO.................oo#o+XOO.................@oo%%............oo+XO......O+XXXX+oo@..@  @@o#$$  %+O.....",
"......#o%%............#o+XO..................@oo+XX+O.................#o%%............#o+XO.......OOOOO.o#ooo#  #o#$      @.....",
".....@oo%%O..........@oo++OO...............@.@oo+XXXOO...............@oo%%O..........@oo++OO............#$##$$  $##$      @.....",
"....oo#o.O%%........oo#o.O++O.............oooo#o.OXXX+O.............oo#o.O%%........oo#o.O++O..........@  $$    $##$  %%o$oo....",
"@@@@#$$#@@OO@@@@@@@@#$$#@.++.@@@@@@@@@@@@@#$$$$#@.++++.@@@@@@@@@@@@@#$$#@@OO@@@@@@@@#$$#@.++.@@@@@@@@@@@  $$    $$$$  %%o$$#@@@@",
"                                                                                                                                ",
"                                                                                                                                ",
"++++++++++++.@  @.++++++++++++++++++.@        $$        @.+++++++++++++++++++%  @.++++++++++++++++++.@    $$$$$$        @.++++++",
"XXXXXXXXXXXXO.  .OXXXXXXXXXXXXXXXXX+O.        $#        .OXXXXXXXXX+XXXXXXXXX+  .OXXXXXXXXXXXXXXXXX+O.    $o###$        .OXXXXXX",
"XXOOOOOOOOXXX+oo+XXXXXXXOOOOOOOOOOOOX+o#@@#$$#@@#$  $$$o+XXXXXOOX+ooXXOOOOOOO.#o+XXXXXXXOOOOOOOOOOOO++o#@@.@o###$$    $o+XXXXXOO",
"X+O......OXXX+oo+XXXXXX+O..........O++oo..oo#o..o$  #o#o+XXXXXOO++oo%+........##%+++++X+O.........OO++oo....o###$$    $o+XXXXXOO",
"OO.......OXXO.oo+XXXOOOO............O.oo%%.@oo.@o#$#@@oo+XXXXX..oo#$  #o.....@        .O.........O++O.oo%%..o##$    $$#o+XXXXXXX",
".........O++O.oo+XX+OO................oo%%..oo..o#oo..oo+XXXX+O.oooo  $#@...@@        @.@@.......O++O.oo%%.@o##$    $##o+XXXXX+X",
"..........OO..#o+XOO++O...............#o%%......#o@...#o+XOOOO.O+++++%  #oo#    @@@@.@o#  @.......OO..#o%%oo####$$$$###o+XOOXXOO",
".............@oo+XOO++O..............@oo%%......oo....oo+XO....O+XXXXX  $#o#    @....@#$  @..........@oo%%oo##oo##oooo$o+XOO++O.",
"..............#o+XX+OO..............oo#o%%............#o+XO.....OOXXXX+%oo@.@@  @.ooo#  %+O...........#o%%.@oo@@oo@..@  +XO.OO..",
".............@oo+XX+O..............@o##o%%...........@oo+XO......O+XXXX+oo@..@  @@o#$$  %+O..........@oo%%..oo@@oo...@  +XO.....",
"............oo#o+XOO..............oo###o%%............#o+XO.......OOOOO.o#ooo#  #o#$      @...........#o%%...@oo#o....#o+XO.....",
"...........@o##o++OO.............@oo###o%%O..........@oo++OO............#$##$$  $##$      @..........@oo%%O...oooo...@oo++OO....",
"..........oo###o.O++O...........oo@@o##o.O%%......oooo#o.O++O..........@  $$    $##$  %%o$oo........oo#o.O%%........oo#o.O++O...",
"@@@@@@@@@@#$$$$#@.++.@@@@@@@@@@@##@@#$$#@@OO@@@@@@#$$$$#@.++.@@@@@@@@@@@  $$    $$$$  %%o$$#@@@@@@@@#$$#@@OO@@@@@@@@#$$#@.++.@@@",
"                                                                                                                                ",
"                                                                                                                                ",
"++++.@    $$$$$$$$      @.++++++++++++++++++.@  @.++++++++++++++++++.@    $$$$$$        @.++++++++++++++++++.@  @.++++++++++++++",
"XXX+O.    $o####o#      .OXXXXXXXXXXXXXXXXX+O.  .OXXXXXXXXXXXXXXXXX+O.    $o###$        .OXXXXXXXXXXXXXXXXX+O.  .OXXXXXXXXXXXXXX",
"OOOO++o#@@.@o##o@@#$  $o+XXXXXOOXXOOOOOOOOOOX+oo+XXXXXOOXXOOOOOOOOOO++o#@@.@o###$$    $o+XXXXXOOXXOOOOOOOOOOX+oo+XXXXXOOXXOOOOOO",
"..OO++oo....o#oo..o$  $o+XXXXXOO++O........O++oo+XXXXXOO++O.......OO++oo....o###$$    $o+XXXXXOO++O........O++oo+XXXXXOO++O.....",
".O++O.oo%%..oo@...##$$#o+XXXXXX+OO..........O.oo+XOOXXO.OO.......O++O.oo%%..o##$    $$#o+XXXXXX+OO..........O.oo+XOOXXO.OO......",
".O++O.oo%%..oo....o#oo#o+XXXXXX+O.............oo+XOO++O..........O++O.oo%%.@o##$    $##o+XXXXXX+O.............oo+XOO++O.........",
"..OO..#o%%........#o@@oo+XOOXXOO..............#o+XX+OO............OO..#o%%oo####$$$$###o+XOOXXOO..............#o+XX+OO..........",
"......oo%%........oo..oo+XOO++O..............@oo+XX+O................@oo%%oo##oo##oooo$o+XOO++O..............@oo+XX+O...........",
"......#o%%...........@oo+XO.OO..............oo#o+XOO..................#o%%.@oo@@oo@..@  +XO.OO..............oo#o+XOO............",
".....@oo%%............oo+XO.................oo#o+XOO.................@oo%%..oo@@oo...@  +XO.................oo#o+XOO............",
"......#o%%............#o+XO..................@oo+XX+O.................#o%%...@oo#o....#o+XO..................@oo+XX+O...........",
".....@oo%%O..........@oo++OO...............@.@oo+XXXOO...............@oo%%O...oooo...@oo++OO...............@.@oo+XXXOO..........",
"....oo#o.O%%........oo#o.O++O.............oooo#o.OXXX+O.............oo#o.O%%........oo#o.O++O.............oooo#o.OXXX+O.........",
"@@@@#$$#@@OO@@@@@@@@#$$#@.++.@@@@@@@@@@@@@#$$$$#@.++++.@@@@@@@@@@@@@#$$#@@OO@@@@@@@@#$$#@.++.@@@@@@@@@@@@@#$$$$#@.++++.@@@@@@@@@",
"                                                                                                                                ",
"                                                                                                                                ",
"++++++++++++.@  @.++++++++++++++++++.@        $$        @.++++++++++++++++++.@  @.++++++++++++++++++.@        $$        @.++++++",
"XXXXXXXXXXXXO.  .OXXXXXXXXXXXXXXXXX+O.        $#        .OXXXXXXXXXXXXXXXXXXO.  .OXXXXXXXXXXXXXXXXX+O.        $#        .OXXXXXX",
"XXOOOOOOOOXXX+oo+XXXXXXXOOOOOOOOOOOOX+o#@@#$$#@@#$  $$$o+XXXXXOOXXOOOOOOOOXXX+oo+XXXXXXXOOOOOOOOOOOOX+o#@@#$$#@@#$  $$$o+XXXXXOO",
"X+O......OXXX+oo+XXXXXX+O..........O++oo..oo#o..o$  #o#o+XXXXXOO++O......OXXX+oo+XXXXXX+O..........O++oo..oo#o..o$  #o#o+XXXXXO.",
"OO.......OXXO.oo+XXXOOOO............O.oo%%.@oo.@o#$#@@oo+XXXXX..OO.......OXXO.oo+XXXOOOO............O.oo%%.@oo.@o#$#@@oo+XXXXX..",
".........O++O.oo+XX+OO................oo%%..oo..o#oo..oo+XXXX+O..........O++O.oo+XX+OO................oo%%..oo..o#oo..oo+XXXX+O.",
"..........OO..#o+XOO++O...............#o%%......#o@...#o+XOOOO............OO..#o+XOO++O...............#o%%......#o@...#o+XOOOO..",
".............@oo+XOO++O..............@oo%%......oo....oo+XO..................@oo+XOO++O..............@oo%%......oo....oo+XO.....",
"..............#o+XX+OO..............oo#o%%............#o+XO...................#o+XX+OO..............oo#o%%............#o+XO.....",
".............@oo+XX+O..............@o##o%%...........@oo+XO..................@oo+XX+O..............@o##o%%...........@oo+XO.....",
"............oo#o+XOO..............oo###o%%............#o+XO.................oo#o+XOO..............oo###o%%............#o+XO.....",
"...........@o##o++OO.............@oo###o%%O..........@oo++OO...............@o##o++OO.............@oo###o%%O..........@oo++OO....",
"..........oo###o.O++O...........oo@@o##o.O%%......oooo#o.O++O.............oo###o.O++O...........oo@@o##o.O%%......oooo#o.O++O...",
"@@@@@@@@@@#$$$$#@.++.@@@@@@@@@@@##@@#$$#@@OO@@@@@@#$$$$#@.++.@@@@@@@@@@@@@#$$$$#@.++.@@@@@@@@@@@##@@#$$#@@OO@@@@@@#$$$$#@.++.@@@",
"                                                                                                                                ",
"                                                                                                                                ",
"++++.@    $$$$$$$$      @.++++++++++++++++++.@  @.++++++++++++++++++.@    $$$$$$$$      @.+++++++++++++++++++%  @.++++++++++++++",
"XXX+O.    $o####o#      .OXXXXXXXXXXXXXXXXX+O.  .OXXXXXXXXXXXXXXXXX+O.    $o####o#      .OXXXXXXXXX+XXXXXXXXX+  .OXXXXX+XXXXXXXX",
"OOOO++o#@@.@o##o@@#$  $o+XXXXXOOXXOOOOOOOOOOX+oo+XXXXXOOXXOOOOOOOOOO++o#@@.@o##o@@#$  $o+XXXXXOOX+ooXXOOOOOOO.#o+XXXXXoo.OOOOOOO",
"..OO++oo....o#oo..o$  $o+XXXXXOO++O........O++oo+XXXXXOO++O.......OO++oo....o#oo..o$  $o+XXXXXOO++oo%+........oo%+++++oo........",
".O++O.oo%%..oo@...##$$#o+XXXXXX+OO..........O.oo+XOOXXO.OO.......O++O.oo%%..oo@...##$$#o+XXXXXX+oo#$  #o......##    oo..........",
".O++O.oo%%..oo....o#oo#o+XXXXXX+O.............oo+XOO++O..........O++O.oo%%..oo....o#oo#o+XXXXXX+oooo  $#@...@@#$    #o@.@@......",
"..OO..#o%%........#o@@oo+XOOXXOO..............#o+XX+OO............OO..#o%%........#o@@oo+XOOXXOO++X++%  #oo#    @@@@.@o#  @.....",
"......oo%%........oo..oo+XOO++O..............@oo+XX+O................@oo%%........oo..oo+XOO++OO+XXXXX  $#o#    @....@#$  @.....",
"......#o%%...........@oo+XO.OO..............oo#o+XOO..................#o%%...........@oo+XO.OO..OOXXXX+%oo@.@@  @.ooo#  %+O.....",
".....@oo%%............oo+XO.................oo#o+XOO.................@oo%%............oo+XO......O+XXXX+oo@..@  @@o#$$  %+O.....",
"......#o%%............#o+XO..................@oo+XX+O.................#o%%............#o+XO.......OOOOO.o#ooo#  #o#$      @.....",
".....@oo%%O..........@oo++OO...............@.@oo+XXXOO...............@oo%%O..........@oo++OO............#$##$$  $##$      @.....",
"....oo#o.O%%........oo#o.O++O.............oooo#o.OXXX+O.............oo#o.O%%........oo#o.O++O..........@  $$    $##$  %%o$oo....",
"@@@@#$$#@@OO@@@@@@@@#$$#@.++.@@@@@@@@@@@@@#$$$$#@.++++.@@@@@@@@@@@@@#$$#@@OO@@@@@@@@#$$#@.++.@@@@@@@@@@@  $$    $$$$  %%o$$#@@@@",
"                                                                                                                                ",
"                                                                                                                                ",
"++++++++++++.@  @.++++++++++++++++++.@        $$        @.+++++++++++++++++++%  @.++++++++++++++++++.@    $$$$$$        @.++++++",
"XXXXXXXXXXXXO.  .OXXXXXXXXXXXXXXXXX+O.        $#        .OXXXXXXXXX+XXXXXXXXX+  .OXXXXXXXXXXXXXXXXX+O.    $o###$        .OXXXXXX",
"XXOOOOOOOOXXX+oo+XXXXXXXOOOOOOOOOOOOX+o#@@#$$#@@#$  $$$o+XXXXXOOX+ooXXOOOOOOO.#o+XXXXXXXOOOOOOOOOOOO++o#@@.@o###$$    $o+XXXXXOO",
"X+O......OXXX+oo+XXXXXX+O..........O++oo..oo#o..o$  #o#o+XXXXXOO++oo%+........##%+++++X+O.........OO++oo....o###$$    $o+XXXXXOO",
"OO.......OXXO.oo+XXXOOOO............O.oo%%.@oo.@o#$#@@oo+XXXXX..oo#$  #o.....@        .O.........O++O.oo%%..o##$    $$#o+XXXXXXX",
".........O++O.oo+XX+OO................oo%%..oo..o#oo..oo+XXXX+O.oooo  $#@...@@        @.@@.......O++O.oo%%.@o##$    $##o+XXXXX+X",
"..........OO..#o+XOO++O...............#o%%......#o@...#o+XOOOO.O+++++%  #oo#    @@@@.@o#  @.......OO..#o%%oo####$$$$###o+XOOXXOO",
".............@oo+XOO++O..............@oo%%......oo....oo+XO....O+XXXXX  $#o#    @....@#$  @..........@oo%%oo##oo##oooo$o+XOO++O.",
"..............#o+XX+OO..............oo#o%%............#o+XO.....OOXXXX+%oo@.@@  @.ooo#  %+O...........#o%%.@oo@@oo@..@  +XO.OO..",
".............@oo+XX+O..............@o##o%%...........@oo+XO......O+XXXX+oo@..@  @@o#$$  %+O..........@oo%%..oo@@oo...@  +XO.....",
"............oo#o+XOO..............oo###o%%............#o+XO.......OOOOO.o#ooo#  #o#$      @...........#o%%...@oo#o....#o+XO.....",
"...........@o##o++OO.............@oo###o%%O..........@oo++OO............#$##$$  $##$      @..........@oo%%O...oooo...@oo++OO....",
"..........oo###o.O++O...........oo@@o##o.O%%......oooo#o.O++O..........@  $$    $##$  %%o$oo........oo#o.O%%........oo#o.O++O...",
"@@@@@@@@@@#$$$$#@.++.@@@@@@@@@@@##@@#$$#@@OO@@@@@@#$$$$#@.++.@@@@@@@@@@@  $$    $$$$  %%o$$#@@@@@@@@#$$#@@OO@@@@@@@@#$$#@.++.@@@",
"                                                                                                                                ",
"                                                                                                                                ",
"++++.@    $$$$$$$$      @.++++++++++++++++++.@  @.++++++++++++++++++.@    $$$$$$        @.++++++++++++++++++.@  @.++++++++++++++",
"XXX+O.    $o####o#      .OXXXXXXXXXXXXXXXXX+O.  .OXXXXXXXXXXXXXXXXX+O.    $o###$        .OXXXXXXXXXXXXXXXXX+O.  .OXXXXXXXXXXXXXX",
"OOOO++o#@@.@o##o@@#$  $o+XXXXXOOXXOOOOOOOOOOX+oo+XXXXXOOXXOOOOOOOOOO++o#@@.@o###$$    $o+XXXXXOOXXOOOOOOOOOOX+oo+XXXXXOOXXOOOOOO",
"..OO++oo....o#oo..o$  $o+XXXXXOO++O........O++oo+XXXXXOO++O.......OO++oo....o###$$    $o+XXXXXOO++O........O++oo+XXXXXOO++O.....",
".O++O.oo%%..oo@...##$$#o+XXXXXX+OO..........O.oo+XOOXXO.OO.......O++O.oo%%..o##$    $$#o+XXXXXX+OO..........O.oo+XOOXXO.OO......",
".O++O.oo%%..oo....o#oo#o+XXXXXX+O.............oo+XOO++O..........O++O.oo%%.@o##$    $##o+XXXXXX+O.............oo+XOO++O.........",
"..OO..#o%%........#o@@oo+XOOXXOO..............#o+XX+OO............OO..#o%%oo####$$$$###o+XOOXXOO..............#o+XX+OO..........",
"......oo%%........oo..oo+XOO++O..............@oo+XX+O................@oo%%oo##oo##oooo$o+XOO++O..............@oo+XX+O...........",
"......#o%%...........@oo+XO.OO..............oo#o+XOO..................#o%%.@oo@@oo@..@  +XO.OO..............oo#o+XOO............",
".....@oo%%............oo+XO.................oo#o+XOO.................@oo%%..oo@@oo...@  +XO.................oo#o+XOO............",
"......#o%%............#o+XO..................@oo+XX+O.................#o%%...@oo#o....#o+XO..................@oo+XX+O...........",
".....@oo%%O..........@oo++OO...............@.@oo+XXXOO...............@oo%%O...oooo...@oo++OO...............@.@oo+XXXOO..........",
"....oo#o.O%%........oo#o.O++O.............oooo#o.OXXX+O.............oo#o.O%%........oo#o.O++O.............oooo#o.OXXX+O.........",
"@@@@#$$#@@OO@@@@@@@@#$$#@.++.@@@@@@@@@@@@@#$$$$#@.++++.@@@@@@@@@@@@@#$$#@@OO@@@@@@@@#$$#@.++.@@@@@@@@@@@@@#$$$$#@.++++.@@@@@@@@@",
"                                                                                                                                ",
"                                                                                                                                "
};
