/* XPM */
static char *c2dcf2974b8b4fa2da3665f79eae4761hQtkzjPpk9yDZgxF[] = {
/* columns rows colors chars-per-pixel */
"128 128 71 1 ",
"  c #81562B",
". c #643A10",
"X c #4C6434",
"o c #715115",
"O c #020000",
"+ c #4B2805",
"@ c #0B0101",
"# c #39451D",
"$ c #7E542A",
"% c #311805",
"& c #4B6132",
"* c #663B0F",
"= c #210B01",
"- c #9C6C15",
"; c #281003",
": c #693D10",
"> c #7E4B0D",
", c #3E1F07",
"< c #140602",
"1 c #583311",
"2 c #4F6735",
"3 c #522E0A",
"4 c #180D05",
"5 c #647C38",
"6 c #875A2D",
"7 c #6B451D",
"8 c #85572B",
"9 c #5F360C",
"0 c #201704",
"q c #8A510D",
"w c #755315",
"e c #795027",
"r c #6C4C14",
"t c #341E09",
"y c #24240D",
"u c #2C2F0F",
"i c #5C3B0E",
"p c #7B5715",
"a c #AF7330",
"s c #492D11",
"d c #36401B",
"f c #70400C",
"g c #8C5D2B",
"h c #3E260E",
"j c #475A2D",
"k c #78470D",
"l c #536B37",
"z c #442407",
"x c #533609",
"c c #A36C2D",
"v c #323716",
"b c #19170B",
"n c #855C12",
"m c #5C7537",
"M c #624013",
"N c #754B21",
"B c #3D4B21",
"V c #6D873C",
"C c #425327",
"Z c #96632D",
"A c #BC7D2F",
"S c #946714",
"D c #C4730E",
"F c #9D5C0D",
"G c #83541D",
"H c #A97515",
"J c #CA8631",
"K c #76913B",
"L c #576625",
"P c #93AC3A",
"I c #A6C53F",
/* pixels */
"yyyyyyyyyy0OhnooooooooooowpprishsMwoowo@hg$          81O%:.....................*1@4tttttttttttttttttttttttttt<@byyyyyyyyyyyyyyyy",
"555555555Vl@hnoooooooowpwrxhhx7opwooooi@hg$          83O%:.....................*3<nH-------SSSSSSSnnnnnnnnpp-3@55555555555555555",
"&&&&&&&&&X&@hnoooowppoihthxrpnpooooooMx@hg$           3O%:.....................*34Snwwwwwooooorrrrooororrrorps42&&&&&&&&&&&&&&&&",
"XXXXXXXXXX&@hpoooprxt%hMpnnpooooooooMxx@hg$          $3O%:.....................*34Swooooooooowwwwwpwpppppppwps<&XXXXXXXXXXXXXXXX",
"XXXXXXXXXX&@hpooph4sMnSnporoooooooorxxx@hg$         8 3O%:.....................*34Swooooooorr77MMiiixxshsssips<&XXXXXXXXXXXXXXXX",
"XXXXXXXXXX&@hprpxshnHnoroooooooooooo9xx@hg 88888888 eN3O%:.*************.......*+4SwooooooooorrrrMMMixsshh<OM3<&XXXXXXXXXXXXXXXX",
"XXXXXXXXXX&@,pwMsJAtnproooooooooooorxxx@tNNNNNNeeN77.:1O%999999999999199..******+4nwoooooooooowwwppnnS-HHH-%4s<&XXXXXXXXXXXXXXXX",
"XXXXXXXXXX&@,prhASHHhnwooooooooooowoxxx@433333333x33xxtO=++++++++++++++++3331191z4Spwppwoooooooooooorrropn-pO<4&XXXXXXXXXXXXXXXX",
"XXXXXXXXXX&@,ph--SSHH3pooooooooowwrMxxx<O@@@@@@O@O@@O@@@@@@@@@@@@@@@@@@@@@@@@@@<@@riiiiMorroooooooooooooorpn@@4&XXXXXXXXXXXXXXXX",
"XXXXXXXXXX&@hxpHnnnSHHipwoowwoorrMxxxxx@.g        $6hO<bbbbbbbbbbbbbbbbbbbbbbbbbbbbbbbb<=xirooooooooooooooop@@4&XXXXXXXXXXXXXXXX",
"XXXXXXXXXX&<4MSor7Mrw-HMoorMMiixxxxxxxx<8c666666668ZsOCVVV5555555555555555555555555555Vmb@3MoooooooooooooooShO4&XXXX22XXXXXXXXXX",
"2222222222j@=rMiiiiiii>nxMii9iiiiiiiiii<$Z$$$$$$$$$6hO&Vl22XXXXX&&&&&&&&&&&&X&XX&XXXXX&m5b@37ooowwoooooooorw-s<X22X&jjj&&&&&XXX2",
"BBBBBBBBB#v@<ttttttttt%zh%tttttttttttt%@ Z$        6hO&VX&XXXXXXXXXXXXXXXXXXXXXXXXXXXXX&l5b@sxxxxxxxxxxxxx3sx,Od##ddddddddd####B",
"@<000000004@@;;;;;;;;;;=;;;;;;;;;;;;;;=@ Z$        6hO&V2&XXXXXXXXXXXXXXXXXXXXXXXXXXXX&X&lm@=t%%%tttt=<4;;;%;==;0;00000000000004",
"Ohpooooooor@zDDDDDDDDDDDDDDDDDDDDDDDDDD<$Z$        6hO&VX&XXXXXXXXXXXXXXXXXXXXXXXXXXXXXXX&5yGAaaaaacA7O.>fffffffffffffffffffff:%",
"Ospooooooow<+DDDDDDDDDDDDDDDDDDDDDDDDDD= c$        8hO&VX&XXXXXXXXXXXXXXXXXXXXXXXXXXXXXXXXlugcZZg6 $Z7O,+9...................++;",
"Ospoooooooo<+DFqqqqqqqqqqqqqqqqqqqqqqq>478         8,O&VX&XXXXXXXXXXXXXXXXXXXXXXXXXXXXXXXX2yg6$$$$  61O==3:................*.z+=",
"@spoooooooo<+Dq>qqqqqq>f*kqqqqqqqqqqqq>4;%N8        ,O&V&XXXXXXXXXXXXXXXXXXXXXXXXXXXXXXXXX2yg6     $giO;;3:...............*93+%@",
"Ospoooooooo<+Dqqqq>qqqqqk1z3kq>>>kkfff:<%,N8       $,O&V&XXXXXXXXXXXXXXXXXXXXXXXXXXXXXXXXX2yg6      6sO;;3:.............*.33,<<;",
"Ospooooooow@+Dqqqqqqq>qqqqk1;%,;,,,,,z,@%,N8       $,O&V&XXXXXXXXXXXXXXXXXXXXXXXXXXXXXXXXX2yg6       ;O;;3:...........*.1++;@%>9",
"Ospooooooor@+Dqqq>qqqqqqqqq1zk>+,>::**9@%,N8       e,O&V&XXXXXXXXXXXXXXXXXXXXXXXXXXXXXXXXX2yg6       ;O;;3:.........*.1++t@;:qF1",
"Ospoooowr7o<+Dq>qqqq>qqq>k3%kf.k31f..:3O%,N8       e,O&V&XXXXXXXXXXXXXXXXXXXXXXXXXXXXXXXXX2yg6       ;O;;3:.......**9++z4<3qq>>1",
"OspooowMir7@+Dq>qq>qqqqk:1%k:9.9f9**.:+O%,N8       N,O&5&XXXXXXXXXXXXXXXXXXXXXXXXXXXXXXXXX2yg6$     8%O;;3:......*.3++%@,>Fqk*fx",
"OspoooiMoop<+Dqqqqqqq>::1%ff.*...:::.:,O%,N8       N,OLm&XXXXXXX2XXXXXXXXXXXXXXXXXXXXXXXXX2ygg$     8%O;;3:....**1++,<;fFqk:..f3",
"OspowMwpwww<+Dqkkfff:.9+,ff9*........*%O%,N8       N,O&m&XXXX22&CBBBBBBBBCCCjjj&XXXX2222XX2ygg$     6%O;;3:***.9++z=49qqk:..*.f3",
"Osporrwrooo@+-*9.....139f:.*........*9;O%,N8       N,Ojl&XX&jCB##########d#######BBBCCjjj&2ygg$     6tO;;3.913+++%4+qqk:......M3",
"Osprrwooooo<,F:.*....9::............:3=O%,N8       etOjl&jB#####vvvvvvvvddd###########d###Bygg$     6tO;=,+zzz+,4tkF>*........:s",
"Oxoiwoooooo<,F:.....**..*...........:z=O%,N8       $tOBjB####dvuuuuuuuuuuuuuuvvvvddd######B0gg$     6tO==,++++;;:q>:..........:s",
"@tMwooooooo<,F:.....................:,=O%,N8        ,Ou#d#dvuuuuuuuuuuuuuuuuuuuuuuuuuuv####bgg$     6,O==,3+t;3qq:............:h",
"Ospoooooooo<,F:...................**f,=O%,N8       8,O@OOOOOOOOOOOOOOOOOOOOOOOOOOOOOOOOO@@O@Zg$    8N%O<<;%;z>qfii*...........:h",
"O3pooooooop<tF:9......******:::::.933%=O%,N8       8,Ot777777777777777777777777777777777779<Zg$   $610@@@<tfqfi...............:h",
"Ospoooooowx@,Ff*::**..99911113+,%;;====O%,N8     $eehOGJaaaaaaaaaaaaaaaaaaaaaaaaaaaaaaaaAAA%gg$$$  6+%O<=1kf..*******.........:t",
"OsnpppppphM4=9,%%%%%;;;;===============O=;1:*:MMMiiMtOeae$$$$eee$ee$ee$e$$$$$$$$   668e$6Zc;ZZ6gg6$$3tO;;39311119999..*::::::*9%",
"O<tttttt%<tOOOOOOOOOOOOOOOOOOOOOOOOOOOOOOO@@@@@@@@@@OOec$            $$$  $$$$eeNN71t4<thhs<%hhhht%0%<OO@4=4444;=4=============@",
"GeNNNNNesO%wrrwM;;;;;;;;;;;;;;;;;;;;;;;;;;MorrrrrrrosOeZ$      86666gggg68$eNr7Miixir60hcZ1Oh71==;;;;;%;;i7777%OtN77777777777777",
"ZZZZZZZZeOrHH-HS+++++++++++++++++++++++++3-HHH-HHH-HpONg$     6gZZccaaaAaAaAaaaaAJJJJJAitGZ<$aG%%,%%,%%%%NZggZ1ONaZggggggggggggg",
"$$$$$$e 7Or-S-S--S--SSSSSSSSSSSSSSSSSSS-S--S-S-SS-S-rO7g$      $$$$ 866gZZg68 $$ 6ZcaaaAG4t4NcN,,,,,,,,,,N$$$6sO7c$$$$$$$$$$$$$$",
"       67OrHS--------------------------------------H7Org$            $$$$$$$     $$ gcaaAahO$c8 $$$$$$$$ 8  $gsO7c              ",
"       67OrHS-------------------------------------S-MOrg$                         8 $ ZaaAa=Nc        8     $gsO7c              ",
"       67OrH--------------------------S-------------iONZ$                     $$$$$$  $8Zaa;Nc              $gsO7c              ",
"      $67OxnnS----------------------------------S--niONZe      86666668 $$  86666666888 $gc;Nc     $ $$      ghO7c $            ",
"6666666gMOtMrwpnS--------SSSSSSSSSnnnnnnnnnpppppwwwpxOGZ 66 $$eeN7M.13+,,,,zz+311..77NNe$7s@ c 8666666666688$$hO7a68 eee$$  8866",
"i.....i1t@@%irooowppppwwwoooorrrrroooooorrorooooooopxOMg.1+,,,%%%%;;;;%%%%%%%;;;;;;;%%%%t%;@1k1111i.....i11133;Ot7i1133333311111",
"44444444<O@@4+Mrooooooooooooooooooooooooooooooooooow3OO@OOOOOOOOO@@@OOOOOOOOOOOOOO@OOOOOOO@OO@@@4444444444444444<444444444444444",
"555555555#@@@@%iMMrrowooooooooooooooooooooooooooooow3Ohnnnnnnnnnnnnnnnnnnnnnnnnnnn4pHpnnnnpnp4@j55555555555555555555555555555555",
"VVVVVVVVVKLb@@@4sixxMowoooooooooooooooooooooooooooowsOnJAHHHHHHHHHH-H------SSSSSSShHHnSS-HHHHt@5V555VVVVVVVVVVVVVVVVVVVVVVVVVVVV",
"mmlmlllll2mmv@@@@tiixirwoooooooooooooooooooooooooooo+OpHrrorrorrrrrrrrrrrrrrrrrrrrxS7rrrrooro;<5VV5ml5VV55555555555555m5mmmmmmmm",
"&&&&X&X&&&&XlC4@@@=3ixxrwooooooooooooooooooooooooooo+OpSroooooooooooooooooooooooowx-oooooooow;@2llll&CCj222X2XXXXXX&&&&&&&&&&&&&",
"XXXXXXXXXXXX&2&y@@@@,ixxMowwwowooooooooooooooooooow7+OpSrooooooooooooooooooooooop7tHnooooooow;@CjjX&X2&C#C&2X&XXXXXXXXXXXXXXXXXX",
"XXXXXXXXXXXXX&XCv@@@O=xixiM7rrrroooowwwowwowooooooMi+OwnroooooooooooooooooooooowxhS-wooooooow0O00y&2XXX2&CdBj22XXXXXXXXXXXXXXXXX",
"XXXXXXXXXXXXXXXB#4O77@@hixxxxxxiiiiMMM7r7MMMiiiixxxi+OwpooooooooooooooooooooooohMHnroooooooow0O000j2XXXXX2XCddj22X&XXXXXXXXXXXXX",
"XXXXXXXXX222222B#4ONaN;O%xiiiiiiiiiiiiiiiiiiiiiiiiiM+OrnrrooooooooooooooooooowspSorooooooooow0O000j2XXXXXXX22CvvBX2XXXXXXXXXXXXX",
"XX&&&&&&&jjjjjjdd4O7c6$tO<%%%%%%%%%%%%%0%%%%%%%%%%%%4Oooxwoooooooooooooooooowrrnrooooooooooow0O000j2XXXXXXXXX22Cvu#&l2222222XXXX",
"vvvvvvddddddddduy<O7c$$N%O@@@@@@@@O@OO@@@O@O@@@@@@@@@@xhowoooooooooooooooooow7pooooooooooooow0O000j2XXXXXXXXXXX2ljdyuvvvvvvvvvvv",
"X22XX22XX22222XB#4O7c  $t;688888888888888888888888867@4pwoooooooooooooooooooorpooooooooooooow0O000j2XXXXXXXXXXXX&l&vLLy#l&LL2222",
"XXXXX&&XX&&&&X&##4O7c $6thag66666666666666666666668g @onrooooooooooooooooooooooooooooooooooow0O000j2XXXXXXXXXXXXX2uLmlmdllXXXXXX",
"XXXXXXXXXXXXXX&##4O7c $ghtc6$ $$$$$$$$$$$$$$$$$$$$$ e@Mwoooooooooooooooooooooooooooooooooooow0O000j2XXXXXXXXXXX&ldBmj&X2C2XXXXXX",
"XXXXXXXXXXXXXXj##4O7c $ghhc6$                      8e@xpoooooooooooooooooooooooooooooooooooow0O000j2XXXXXXXXXXX2Cum&XX&X22XXXXXX",
"XXXXXXXXXXXXX2C##4O7c $ghhc6$                     $8e@xwrooooooooooowwwwwwwwwwwwwwwooooooooow0O000j2XXXXXXXXXXX2uL2&XXXXXXXXXXXX",
"XXXXXXXXXXXXXXB##4O7c $ghtag  eNNNNNeee$$ 86666666667Oxnwppppppppworr1,,,tt,,,+1iMrrwppppppppbO000j2XXXXXXXXX&lvBm&XXXXXXXXXXXXX",
"XXXXXXXXXXXX2j###4O7c  8s@s+hhhh,hhhhhhhhhhhhshshshh%O4shhhhhhhht004<<<<@OO@@@<<<<440%thhhhhh@O000j2XXXXXXXX2lBum&XXXXXXXXXXXXXX",
"XXXXXXXXXXXX2B###4O7c N7%OOOOOOOOOOOOOOOOOOOOOOOOOOO@@@OOOOOOOOOOOOOOOOOOOOOOOOOOOOOOOOOOOOOOOO000j2XXXXX222jBul2XXXXXXXXXXXXXXX",
"XXXXXXXXXXXX&####4O7ce1;O<4<<<<<<<==<<<<<<======<==<<<<=<<=@@@@@@@@O@000000000000000000000000@O00yj2XX22XjB##Cl2&XXXXXXXXXXXXXXX",
"XXXXX22XXXXXC####4OeZt@@=;=;=;;;========================;=;@O@@@@@@O@%04b04040404000000000000@O000j2X&jCBBj2llXXXXXXXXXXXXXXXXXX",
"XX&&&jjCCBBB#####4Oh;O<=========%,,,zzzz+++++++333333311119,=;;;;;<O<y44440440444444444444444@O00yj&jjj&XX&jj&&XXX2222XXXXX22222",
"BB####dd########u<@O@=;======;,3.::::::::::::::::::::::***:*9..99*tO0Ld#ddddddddd#dddddddd#d#4@j&&&jjjCCB#####BBBCCCjj&&&&&jjCCC",
"#############dvb@@@<=;====;,3.:*............................***..:%O0L######################B4<CjCB###d#d##########d#########ddd",
"##########dvuy<@@@=;====%+9*:..................................**.%O0L###################ddd#4@d###########B######B#############",
"#####ddvvuuyb@@@<=;==;z9::*.................................**.933%O0L###########dddd##BCCj&2b@uvvvvvvvvvvvuvuvuvuvvvvddddd#####",
"vuuuuuuuuyy4@@<=;==;z9:*......*...........................**.13++3tO0L#########BBCj&&XX&jBduy<@uyyyyyyyyy0yyyyyyyyyyyyyyyyyyyuuu",
"uuuyuyyyyy@@@=;===,9:*......*9.*.......................**.93++33,;<O0L######B&&&jC#vyb4<<4yud4@yuuuuyuyuuuuuuuuuvuvuuuuuuuuuuuuu",
"@@@@@@@<<@@<=;==,9:*........:s*:....................***93+++3z;<<+3O0L#####B&ld4@O@@budjlmmllb@@@@OO@O@@@@@@@@@@@@@@@@@@@@@@@@@@",
"111111i4@@=;==,1:*..........*tk:..................**.93++++%<@%.qq3O0L#####&lC@OyjXm5VV5lX&&Xb@hi11111111111i1i11111111111111111",
"AAAAAaAiO<;=%1:*...........*1;>:................**93++++t4@4+kqk.9zO0L####C2j@yb@2V555mX&XX&2b@cAAAAAAAAAAAAAAAAAAAAAAAAAAAAAAAA",
"$$$$$$gsO<=%:*...........*:ft;F*.............**.13+++,;@@t:q>f999f+O0L###BX2b<PP<@255mX&XXXX2b<caccZZgg688 $$$$$$88gZcccccccccZ8",
"     $gsO<=,:.........*::1z%=4k>9*...........93+++z;@O;1>qf999**9:+O0L###&ly@KIIP<<m5m&XXXXX2b<cc$$$$$$$          $$$$$  $   $$$",
"     $gsO<=,:......*:*1+tts:qf;*k9.........*9++z%<O<zkqk*99**999*:+O0L##jldO5IKKIP<4m5l&XXXX2b<cc$                              ",
"     $gsO<=,:...**.93z+9kqq>k>>t1k..........3z4OO%.>>f99.9933+++3*+O0L#ClCOjIKmmKIP<b552&XXX2b<cc$                              ",
"     $gsO<=,:...9111.fkk:.ii.9:>+sf.......*9+;<3kqk*99933+++++++z3zO0L#&&@vIKm55mVIP<yVmXXX&2b<cZ$                              ",
"     $gsO<=,:...9.:::.99..*.....k1s.......*1,;q>f9333+++++++++++++tO0LCl4yIKm5555m5IP<yVm&X&2b<cZ$                              ",
"     $gsO<=,:...*...............9:91.......3=+f+++++++++++++++++++%O0Llu<PKm55555555IP4uVX&X2b<cZ$                              ",
"     $gsO<=,:.....................*......*9z@93+++++++++++++++++++%O0Vd@KKm555mm55555IP4vV&&2b<cZ$                              ",
"     $gsO<=,:...........................*93<<3++++++++++++++++++++%Ou5OmKm55mlXXl555m5IPb#5&2b<cZ$                              ",
"     $gsO<=,:..........................*9+<z4%3+++++++++++++++++++%O0bBKmml2X&XX&Xm555mPPbBmXb<cZ$                              ",
"     $gsO<=,:..........................1z<.DkO,3++++++++++++++++++%@OvVllX&XXXXXX&&2m555PPyCmb<cZ$                              ",
"     $gsO<=,:.......................*.1t4>Ffq+Oz++++++++++++++++++%O0KXXXXXXXXXXXXXX&2m55PPyCb@cZ$                              ",
"     $gsO<=,:......................*93%;FF31fk;@++++++++++++++++++%OyV&XXXXXXXXXXXXXXX&lmmPPu<<cZ$                              ",
"     $gsO<=,:.....................*93;zFq3++3ff<=1++++++++++++++++%OyV&XXXXXXXXXXXXXXXXXXlmPPb<cZ$                              ",
"     $gsO<=,:....................*93%3Fk3+++++f1O9++++++++++++++++%OyV&XXXXXXXXXXXXXXXXXXX&XPv@cc$                              ",
"     $gsO<=,:...................*134zFf3z++++z.1@1++++++++++++++++%OyV&XXXXXXXXXXXXXXXXXXXX&Xb<cc$                              ",
"     $gsO<=,:...................1+;z%q1z+++++z*+@1++++++++++++++++%OyV&XXXXXXXXXXXXXXXXXXXXX2b<cc$                              ",
"     $gsO<=,:..................3z;3.,f1z+++++z*z<1++++++++++++++++%OyV&XXXXXXXXXXXXXXXXXXXXXXb<cc$                              ",
"     $gsO<=,:...............*93,033z+13++++++z*%<3+++++++++++++++z%OyKXllllllllllllllllllllllb<cZ$                              ",
"     $gsO<=,:..............*93t%93z++++++++++z*;43+++++++++++++++z%O4C####d##d##d##d##d##d###4<cZ$      8886888                 ",
"     $gsO<=,:.............*9+%,9+++++++++++++z9==3+++++++++++++++z%@@tssssssssssssssssssssss<O@ec$8888 $eNMM7Nee$888            ",
"  888 gsO<=,:............*9z%z3++++++++++++++z9<;3+++++++++++++++z%O%JJAAAAAAAAAAAAAAAAAAAAActO488ee7Mi3z%;=;%z39:7N 8888888    ",
"$eeNN7esO<=,:..........**1t%++++++++++++++++++1@;3+++++++++++++++,%OtJ$eee$ee$ee$ee$eeeeeeee86tO4ii++z,,,zz+,%;4=%tzs1.M7NNe$$$$",
"i11111:tO<=,:**********.+%%,,,,,,,,,,,,,,,,,,,z@4z,,,zzzzzzzzz,,t,%OtJ  8         8  8888888  6hO<s1119i.*MM77Mi3sszhzz+31199**.",
"%%%%%%%<@<<,.999991133+,%%%%%%,%%t%t%t%%%%%%%%%@4%%%%%%%%%%%%%%%%%;O%a$$8888888    $$e$$eeeeNNNe%O<%%%%%%%%%%%%%ttttt%t%%%%%%%%%",
"@OOOOOO@@O@@@OOOOOOOOOOOO@@O@OOOOOOOOOOOOOOOOOOOOOOOOO@@@OOOOOOOOOOOO=444444======<=;;4444444444@OOOOOOOOOOOOOOOOOOOOOOOOOOOOOOO",
"4dddddd4@du@<1777777777N1@@sGGGGGGGGGGGGGGGGGGGGGGGGGN<@<NGGGGGGGGGGGGGGGGGGGeGGeeGsOOzf*::::::*:fffffffffffffffffffffffffffff:;",
"#KKKVVK#vK5@sJAaaAaaAaaaatOZJcaaaaaaaaaaaaaaaaaaaaaaaa%OhJaaaaaaaaaaaaaaaaaaaaaaaaa3O:DFFFFFFFFFFFFFFFFFFFFFFFFFFFFFFFFFFFFFFFD1",
"#5l22&2uj2&O1Jeeeee$ee$e8MOhcNeeee$e$eeeeeeeeeeeeeeeee;OzAeeeeeeeeeeeeeeeeeeeeee$M<OfDqkkkkkkkkkkkkkkkkkkkkkkkkkkkkkkkkkkkkkkk>z",
"#m&XXXjylX&O1J$8         8;@cZ 668$NNe 8888          6;OzJ$8   6866666666666666 1<O*Dqk>>>>>>>>>>>>>>>>>>>>>>>>>>>>>>>>>>>>>>>qh",
"#m&XXldvm&&O1J$         $6iO1g7ix1M7..M7Ne$ 8     $$$e;OhJ88 $$eeNN7777:Mi113s+,@O%Dqk>>>>>>>>>>>>>>>>>>>>>>>>>>>>>>>>>>>>kkkk>h",
"#m&XXlyjl2#O1J$            4@=<%.e88 e7Mii.M777M.13sh;@@<t;;==<<<<@<@@@<@@@@@@@OOO3Fk>>>>>>>>>>>>>>>>>>>>>kkkfff:::::::***....:t",
"#m&X2jym&lvO1J$          $61@@8aZ8    8 $N7Miii111i.7G;@<bybyyyyyyyyyyyyyyyyyyyy0O3Fk>>>>>>>>>>>>>>>>>>>>f**..................:t",
"#m&XldvmjlvO1J$           8e<4a$$$       88 $$66gZZZZAtOuKVKVVVVVVVVVVVVVVVVV55V5@+Fk>>>>>>>>>>>>>>>>>>>k..****...............:t",
"#m&Xlyjl&2vO1J$            8hOZZ$       $$$$ $$$eeeeN74OvVmlllll22XXXXXX&&&&&&&Xl@+qk>>>>>>>>>>>>>>>>>>>:.**..................:t",
"#m&X2yL2&lvO1J$            87@,N777777777777777MMMMM:.4Ov5j&&&&&&&&&&&XXXXX&XXX2COzqkkkk>>>>>>>>>>>kkkkf.*9.*.................:t",
"#m&&2y&2&ldO1J$             etO<=======;;4444444;===44@@v5&XXXXXXXXXXXXXXXXXXXXXB@%:.*.****:::::::**.....:s*:.................:%",
"#m&&luj2&ldO1J$             $1@@@<<<<<@OO<444444444444<Ovm&XXXXXXXXXXXXXXXXXXXXjd@<;%9***................*tf:..................%",
"#m&&lvCl&ldO1J$              7;O#2&&&XC@hacccccccccccaeOvm&XXXXXXXXXXXXXXXXXXXXBd@@==1:**.............**:9;>:................*9;",
"#m&XldCl&2#O1J$              ehOC2XXX2&Osa  $ $$ $  $6e@vm&XXXXXXXXXXXXXXXXXXX2Bd@@==1:.....*..........9*t;F*.*..............*9;",
"#m&Xld#l&2#O1J$              $hOC2XXX2&OsZ$8        $67Ovm&XXXXXXXXXXXXXXXXXXXXBd@@==1*....991133s+hzz,,t%4f>................*1;",
"#m&XlB#l&2dO1J$              e,OC2XXXX&OsZ$8        $67Ov5&XXXXXXXXXXXXXXXXXXX&Bd@@==1:*::fffkkk>>>qqqqqqqf;1q..*............*1;",
"#m&X2CdlXjyO3J$             6etOC2&X&X&OsZ$          67Ov5&XXXXXXXXXXXXXXXXXXX&#d@@;=1:...........*::fffkk>q,,>f.**..........*3;",
"#m&X2jd2&vyO3J$   888888888$eMtOC2XXX2COsZ$          67Ov5&XXXXXXXXXXXXXXXXXXX&#d@@;=1:.................9.9:q1%:k.*...........3;",
"#m&X2j#2jvyOsJe$$eeNNNN77f:933,OBX&jjC#OsZ$          67Ov5&XXXXXXXXXXXXXXXXXXX&#d@@;=1:...................*.9>ft3k............3;",
"#m&XX&B2Cvy<<.hhhhhz,,,,,,tt,h;@yuuuuuyOsZ$         $6MOv5&XXXXXXXXXXXXXXXXXXX&#d@@;=1*......................9f>+zf:.........93;",
"#m&XXX&XCvy4OOOOOOOOOOOOOOOOOOOOOOOOOOOOsZ$          6MOvm&XXXX&&&&&jjjjjjCCCCB#d@@;=1*.......................9.k9,.f........9+;",
"#m&XXXX&Bvy<4MiiiiiiiiiiiiiiiiiiiiiiiM3OsZ$         $6MOv5XX&jCBBBBBBBBB#######B#@@;=1*.......................*.9ffz3:**....*9+;",
"#m&XXXXjBvy@hH------------------------S<sZ$          6iO<yybbbbbbbbbbbbbbbbbbbbbbO<;=1*.....**********..*..*....*.*f3t39.****9+;",
"#m&XXXXj#vy@h-nowwwwpwpwppppwwwwwwwwwop<hZ$          61@@@<<OOOOOOOOOOOOOOOOOOOOOO@==1:.*....9991133333+++++++++39.*f9,,+319..+;",
"#m&XXX2C#uy@h-woooooooooorooooooooooooo@hg$          61O;::3=;;;;;;;;;;;;;;;;;;;=O@<<z3++++++++++zz++++++++++++++++19*:+,++++++%",
"B5X22&&BBuy@h-oooooooooooooooooooooowpo@hg$          61O%:M3=====================O@=<z+++3++++++++3++++++++++++++++++339+,++++3%",
"u&B#dvvvvvyOhSroooooooooooooooooowwrMxs@hg$          81O%:.9,,,,,,,,,,,,,,,,,,,,t@@<<%%t%%%%%%t%%t%%t%%t%%t%%%t%%t%%%%%%%%;%%%%<",
"@@@@@@@<@<<OhnrooooooooooooooooooMssxMr@hg$          81O%:.*:::::::::::::::::::f9<@@@@@@@@@@@@@@@@@@@@@@@@@@@@@@@@@@@@@@@@@@@@@@"
};
